<?xml version="1.0" encoding="UTF-8" standalone="no"?>
<!-- Created with Inkscape (http://www.inkscape.org/) -->

<svg
   width="210mm"
   height="297mm"
   viewBox="0 0 210 297"
   version="1.1"
   id="svg5"
   inkscape:version="1.2.1 (9c6d41e410, 2022-07-14)"
   sodipodi:docname="arrow.svg"
   inkscape:export-filename="..\..\..\public\arrow.png"
   inkscape:export-xdpi="77.734917"
   inkscape:export-ydpi="77.734917"
   xmlns:inkscape="http://www.inkscape.org/namespaces/inkscape"
   xmlns:sodipodi="http://sodipodi.sourceforge.net/DTD/sodipodi-0.dtd"
   xmlns="http://www.w3.org/2000/svg"
   xmlns:svg="http://www.w3.org/2000/svg">
  <sodipodi:namedview
     id="namedview7"
     pagecolor="#505050"
     bordercolor="#ffffff"
     borderopacity="1"
     inkscape:showpageshadow="0"
     inkscape:pageopacity="0"
     inkscape:pagecheckerboard="1"
     inkscape:deskcolor="#505050"
     inkscape:document-units="mm"
     showgrid="false"
     inkscape:zoom="1.0544998"
     inkscape:cx="440.96738"
     inkscape:cy="651.49374"
     inkscape:window-width="1920"
     inkscape:window-height="1017"
     inkscape:window-x="-8"
     inkscape:window-y="-8"
     inkscape:window-maximized="1"
     inkscape:current-layer="layer1" />
  <defs
     id="defs2" />
  <g
     inkscape:label="Layer 1"
     inkscape:groupmode="layer"
     id="layer1">
    <path
       id="path338"
       style="stroke-width:2.64583"
       inkscape:transform-center-x="10.72947"
       transform="rotate(-90,73.80645,64.225805)"
       d="m 94.651846,73.975071 c 0,0 -19.865801,-18.613074 -25.63572,-26.080645 -5.769919,-7.467571 -10.290323,-17.209678 -10.290323,-17.209678 0,0 -4.468212,9.783453 -10.618414,17.3173 -6.150202,7.533847 -27.7915,25.973023 -27.7915,25.973023 0,0 12.637863,-21.238293 19.471086,-31.123897 7.13962,-10.328869 11.621793,-22.403895 17.696893,-33.2529303 5.853428,11.4119403 11.798907,22.6397793 18.583989,32.1884133 6.785082,9.548634 18.583989,32.188414 18.583989,32.188414 z"
       sodipodi:nodetypes="czczcsczc"
       inkscape:export-filename="arrow.png"
       inkscape:export-xdpi="34.169201"
       inkscape:export-ydpi="34.169201" />
    <path
       style="fill:#000000;stroke-width:2.64583"
       d="m 47.016128,74.338708 c 28.058405,-1.566752 58.787272,0.921344 80.666352,3.193549 21.87908,2.272205 24.54704,6.858005 0,5.145162 -24.54704,-1.712843 -53.31431,1.977397 -79.069578,2.83871 C 22.857634,86.377443 18.957723,75.90546 47.016128,74.338708 Z"
       id="path717"
       sodipodi:nodetypes="zzzzz" />
    <path
       style="fill:none;stroke:#000000;stroke-width:5.29166667;stroke-opacity:1;stroke-dasharray:none;stroke-linejoin:round;stroke-linecap:round"
       d="m 45.665415,137.49806 -15.30544,16.55998 16.30907,12.29453"
       id="path719"
       inkscape:export-filename="..\..\..\public\arrow.png"
       inkscape:export-xdpi="75.009377"
       inkscape:export-ydpi="75.009377" />
    <path
       style="fill:none;stroke:#000000;stroke-width:5.29166667;stroke-linecap:round;stroke-dasharray:none;stroke-opacity:1"
       d="m 31.73997,153.86986 c 0,0 40.772687,0.69 37.009055,-8.09181 -3.763633,-8.78181 -16.666951,-3.15426 -11.541807,6.02181 5.125144,9.17607 29.574413,1.25941 33.872701,-2.25818"
       id="path1324"
       sodipodi:nodetypes="czzc" />
    <g
       id="g1385"
       transform="rotate(2.9761697,17.703256,73.409193)"
       inkscape:export-filename="..\..\..\public\arrow.png"
       inkscape:export-xdpi="71.499855"
       inkscape:export-ydpi="71.499855">
      <g
         id="g1389">
        <path
           style="fill:none;stroke:#000000;stroke-width:5.29167;stroke-linecap:round;stroke-linejoin:round;stroke-dasharray:none;stroke-opacity:1"
           d="m 99.610753,183.28893 c -4.940866,6.93548 -8.039146,9.94265 -14.552714,14.05089 7.510758,3.75244 12.811916,7.87315 16.309071,12.29453"
           id="path719-0"
           inkscape:export-filename="..\..\..\public\arrow.png"
           inkscape:export-xdpi="75.009377"
           inkscape:export-ydpi="75.009377"
           sodipodi:nodetypes="ccc" />
        <path
           style="fill:none;stroke:#000000;stroke-width:5.29167;stroke-linecap:round;stroke-dasharray:none;stroke-opacity:1"
           d="m 86.939852,197.65346 c 22.806008,-1.8933 39.728588,-0.38705 63.103568,6.4609"
           id="path1324-0"
           sodipodi:nodetypes="cc" />
      </g>
    </g>
  </g>
</svg>
