<?xml version="1.0" encoding="UTF-8" standalone="no"?>
<!-- Created with Inkscape (http://www.inkscape.org/) -->

<svg
   width="210mm"
   height="297mm"
   viewBox="0 0 210 297"
   version="1.1"
   id="svg1014"
   xml:space="preserve"
   inkscape:version="1.2.1 (9c6d41e410, 2022-07-14)"
   sodipodi:docname="dice.svg"
   xmlns:inkscape="http://www.inkscape.org/namespaces/inkscape"
   xmlns:sodipodi="http://sodipodi.sourceforge.net/DTD/sodipodi-0.dtd"
   xmlns="http://www.w3.org/2000/svg"
   xmlns:svg="http://www.w3.org/2000/svg"><sodipodi:namedview
     id="namedview1016"
     pagecolor="#505050"
     bordercolor="#ffffff"
     borderopacity="1"
     inkscape:showpageshadow="0"
     inkscape:pageopacity="0"
     inkscape:pagecheckerboard="1"
     inkscape:deskcolor="#505050"
     inkscape:document-units="mm"
     showgrid="false"
     inkscape:zoom="1.0544998"
     inkscape:cx="561.87779"
     inkscape:cy="590.80146"
     inkscape:window-width="1920"
     inkscape:window-height="1017"
     inkscape:window-x="1912"
     inkscape:window-y="-8"
     inkscape:window-maximized="1"
     inkscape:current-layer="layer1" /><defs
     id="defs1011" /><g
     inkscape:label="Layer 1"
     inkscape:groupmode="layer"
     id="layer1"><path
       id="path2471"
       style="fill:#000000;stroke-width:0.264583"
       d="m 72.427722,142.1928 c -1.539703,-0.72351 -2.81422,-2.13031 -3.251124,-3.58857 -0.205867,-0.68712 -0.300154,-4.53561 -0.296193,-12.08979 0.0056,-10.58221 0.03015,-11.13548 0.54559,-12.27243 0.671486,-1.48114 1.396034,-2.27048 2.755892,-3.00231 1.037524,-0.55837 1.287245,-0.56957 12.7,-0.56957 11.498146,0 11.655118,0.007 12.732864,0.58372 1.234228,0.66022 2.390159,1.91934 2.917649,3.1781 0.52026,1.24153 0.52026,23.24941 0,24.49095 -0.52749,1.25876 -1.683421,2.51788 -2.917649,3.1781 -1.070256,0.57251 -1.309542,0.58504 -12.468281,0.65298 l -11.377083,0.0693 z m 24.3069,-1.05618 c 1.13084,-0.47249 2.47038,-2.02973 2.81573,-3.27332 0.374666,-1.34917 0.374666,-21.02259 0,-22.37175 -0.34535,-1.2436 -1.68489,-2.80083 -2.81573,-3.27333 -1.246783,-0.52094 -22.458688,-0.52094 -23.705471,0 -1.027303,0.42924 -2.48159,2.02 -2.76167,3.02083 -0.263875,0.94292 -0.263875,21.93383 0,22.87675 0.271497,0.97016 1.717548,2.58008 2.703237,3.00957 1.178616,0.51356 22.537518,0.52367 23.763904,0.0113 z m -5.089546,-3.83017 c -0.99368,-0.53291 -1.868398,-1.91685 -1.868398,-2.9561 0,-1.63303 1.805205,-3.44018 3.435456,-3.43918 1.72738,0.001 3.444936,1.7808 3.442721,3.56734 -0.0021,1.68139 -1.725117,3.31141 -3.500368,3.31141 -0.334367,0 -1.0136,-0.21756 -1.509411,-0.48347 z m -7.405841,-7.65287 c -1.247675,-0.6362 -1.899902,-1.61668 -1.917369,-2.88233 -0.01998,-1.44768 0.626869,-2.57811 1.791456,-3.13075 2.254867,-1.07 4.870704,0.45299 4.868617,2.83461 -0.0013,1.44855 -0.803312,2.76901 -1.980682,3.26095 -1.182378,0.49403 -1.659353,0.47979 -2.762022,-0.0825 z m -8.671065,-7.71245 c -2.342185,-1.47095 -2.122546,-4.9767 0.377232,-6.02118 1.873665,-0.78286 3.925308,0.20247 4.585264,2.20216 0.898773,2.72331 -2.519027,5.35358 -4.962496,3.81902 z" /><path
       id="path2465"
       style="fill:#000000;stroke-width:0.264583"
       d="m 28.790864,115.72268 c 0.24783,-1.38409 0.83368,-2.44955 1.92147,-3.49447 1.69125,-1.62461 2.03438,-1.6649 14.17935,-1.6649 7.56939,0 11.3009,0.0954 12.00729,0.30706 1.36939,0.41028 3.09674,1.92887 3.69684,3.25005 0.44943,0.98946 0.48787,1.97594 0.49323,12.65711 0.005,9.88329 -0.0545,11.72845 -0.4051,12.56771 -0.52124,1.24779 -1.54576,2.32964 -2.89638,3.05844 -1.03899,0.56064 -1.27356,0.57109 -12.8323,0.57109 -11.55872,0 -11.79329,-0.0105 -12.83228,-0.57109 -1.35221,-0.72965 -2.3592,-1.79462 -2.96253,-3.13308 -0.432,-0.95839 -0.48093,-2.07029 -0.51807,-11.77396 -0.0226,-5.89359 0.0443,-11.19187 0.14848,-11.77396 z m 1.67847,23.14579 c 0.32742,0.64086 1.0527,1.52929 1.61173,1.97429 l 1.01642,0.80909 11.28584,0.0772 c 9.85126,0.0674 11.42734,0.0231 12.39886,-0.34791 1.3368,-0.51052 2.59411,-1.86769 2.9929,-3.23059 0.19767,-0.67558 0.26543,-4.49066 0.21037,-11.84449 -0.0927,-12.38634 -0.0697,-12.24937 -2.29678,-13.66173 l -1.19534,-0.75806 h -11.50048 -11.50046 l -1.11019,0.65061 c -1.15234,0.67532 -1.89935,1.59151 -2.25531,2.7661 -0.11406,0.37638 -0.21762,5.57043 -0.23013,11.54233 -0.0225,10.76048 -0.0174,10.86846 0.57257,12.0232 z m 16.00843,-8.45061 c 0.82554,-1.48769 3.05321,-2.07647 4.6778,-1.23636 2.09317,1.08242 2.09317,4.72946 0,5.81188 -1.64583,0.85109 -3.87875,0.28376 -4.63439,-1.17749 -0.48562,-0.93909 -0.50638,-2.56373 -0.0434,-3.39803 z m -8.827692,-11.21589 c 0.90635,-1.07713 2.27402,-1.51381 3.54685,-1.13246 1.4933,0.4474 2.20065,1.3687 2.33988,3.04762 0.11108,1.33947 0.0604,1.49135 -0.81763,2.44943 -0.87489,0.95467 -1.03379,1.0214 -2.43192,1.0214 -1.38948,0 -1.56029,-0.0703 -2.40158,-0.9883 -0.77552,-0.84623 -0.90571,-1.17611 -0.90571,-2.2948 0,-1.01209 0.151,-1.48597 0.67011,-2.10289 z" /><path
       id="path2461"
       style="fill:#000000;stroke-width:0.264583"
       d="m -11.699743,138.07693 c -1.818282,-0.3122 -3.529942,-1.55252 -4.375102,-3.17035 l -0.739305,-1.41519 v -11.58123 -11.58124 l 0.739098,-1.41928 c 0.570123,-1.0948 1.066487,-1.61587 2.171108,-2.27917 l 1.43201,-0.8599 h 11.76827273 c 11.37603927,0 11.80614027,0.0183 12.90440227,0.54999 1.153178,0.55825 2.365917,1.88941 2.945167,3.23278 0.485857,1.12676 0.451659,23.69916 -0.03767,24.86687 -0.556279,1.32747 -1.657385,2.4734 -3.022833,3.14589 -1.242124,0.61175 -1.323197,0.61621 -11.96622127,0.6581 -5.89359283,0.0232 -11.21210973,-0.0431 -11.81892673,-0.14727 z m 23.074663,-1.58286 c 1.304894,-0.59273 2.390003,-1.83274 2.755535,-3.14891 0.383051,-1.37922 0.366443,-21.55046 -0.01889,-22.93841 -0.385596,-1.38892 -1.940893,-2.91793 -3.355597,-3.29887 -0.7740939,-0.20844 -4.4876269,-0.2773 -12.0727093,-0.22386 l -10.9547187,0.0772 -1.123302,0.79375 c -0.617816,0.43656 -1.37203,1.27 -1.676032,1.85208 -0.535702,1.02573 -0.55273,1.41017 -0.55273,12.47888 v 11.42054 l 0.797289,1.14716 c 0.466076,0.67061 1.286243,1.39447 1.974292,1.74248 1.164963,0.58922 1.289416,0.59525 12.16729373,0.5895 10.09036137,-0.005 11.07784727,-0.0456 12.05957027,-0.49152 z M -1.9920433,125.068 c -0.990451,-0.41562 -1.540976,-1.00807 -1.873774,-2.01645 -0.8917128,-2.70192 1.646755,-5.21906 4.36017703,-4.32355 2.43560317,0.80382 2.97120717,4.57211 0.84762697,5.96353 -0.84505497,0.5537 -2.473477,0.73758 -3.33403,0.37647 z" /><path
       id="path2447"
       style="fill:#000000;stroke-width:0.264583"
       d="m 192.4982,142.99301 c -1.35884,-0.49282 -2.59581,-1.62899 -3.27479,-3.00795 -0.62267,-1.26461 -0.62515,-1.30853 -0.7044,-12.4736 -0.053,-7.46491 0.0182,-11.67512 0.21318,-12.61451 0.40976,-1.97378 1.56559,-3.46407 3.30388,-4.25989 l 1.41645,-0.64847 12.30108,0.0762 12.30109,0.0762 1.14067,0.80193 c 0.62736,0.44107 1.50067,1.38423 1.94067,2.09592 l 0.80001,1.29399 v 12.32387 c 0,12.20159 -0.006,12.33469 -0.58371,13.41506 -0.66022,1.23423 -1.91934,2.39016 -3.1781,2.91765 -1.15005,0.48193 -24.34814,0.48518 -25.67603,0.004 z m 25.57333,-1.36661 c 0.4939,-0.29104 1.2678,-0.9867 1.71979,-1.54591 l 0.82181,-1.01675 v -12.38631 -12.3863 l -0.82181,-1.01675 c -1.74712,-2.16157 -1.15277,-2.07508 -14.25944,-2.07508 -6.40292,0 -11.95992,0.0893 -12.34888,0.19836 -1.06211,0.2979 -2.35073,1.4996 -2.89651,2.70111 -0.44738,0.98492 -0.4857,1.97727 -0.4857,12.57866 0,10.63101 0.0373,11.59013 0.48845,12.5677 0.26865,0.58208 0.79053,1.33637 1.15973,1.6762 1.43427,1.32015 1.85651,1.35859 14.2152,1.29419 10.97501,-0.0572 11.55107,-0.0845 12.40736,-0.58914 z m -6.77212,-2.76742 c -2.33762,-1.42532 -2.12168,-4.96156 0.36645,-6.00116 2.75234,-1.15001 5.53795,1.60513 4.42789,4.37944 -0.77993,1.94924 -3.01646,2.70576 -4.79434,1.62172 z m -14.80758,-0.29834 c -1.30211,-0.38117 -2.20475,-1.63611 -2.20475,-3.06527 0,-2.14994 1.34475,-3.52625 3.44539,-3.52625 0.94218,0 1.27384,0.15905 2.14199,1.0272 0.86457,0.86456 1.02721,1.20179 1.02721,2.12981 0,2.52665 -2.05192,4.12475 -4.40984,3.43451 z m 14.80758,-8.69748 c -2.33762,-1.42533 -2.12168,-4.96157 0.36645,-6.00118 1.81336,-0.75767 3.9573,0.26224 4.59165,2.18434 0.25581,0.77513 0.23269,1.14127 -0.13249,2.09746 -0.77872,2.03905 -3.00209,2.83125 -4.82561,1.71938 z m -15.73063,-0.87192 c -0.38648,-0.3267 -0.83296,-0.85406 -0.99219,-1.17192 -0.41102,-0.82047 -0.35838,-2.35787 0.11185,-3.2672 1.08683,-2.1017 4.67638,-2.06561 5.85528,0.0589 0.46297,0.83431 0.44222,2.45894 -0.0434,3.39804 -0.82211,1.58979 -3.56624,2.13634 -4.93153,0.98221 z m 0.68024,-8.4981 c -2.10229,-0.94782 -2.67027,-3.57387 -1.14797,-5.30766 1.39219,-1.58563 3.34803,-1.59687 4.91663,-0.0283 0.73341,0.73341 0.88332,1.08003 0.88009,2.03492 -0.002,0.63302 -0.15098,1.43712 -0.33073,1.78689 -0.75998,1.47879 -2.80548,2.19605 -4.31802,1.51412 z m 15.30734,-0.0288 c -1.74154,-0.75709 -2.43398,-3.13281 -1.40499,-4.8204 0.94847,-1.55555 2.69212,-2.0511 4.387,-1.24683 2.40397,1.14076 2.48409,4.29874 0.14865,5.85891 -1.02447,0.68439 -1.90134,0.74274 -3.13066,0.20832 z" /><path
       id="path2435"
       style="fill:#000000;stroke-width:0.264583"
       d="m 151.82146,142.84352 c -0.58208,-0.27007 -1.43925,-0.89254 -1.90482,-1.38325 -1.68325,-1.77416 -1.66765,-1.63484 -1.66125,-14.84047 0.006,-13.36445 -0.0218,-13.13959 1.88011,-14.94405 1.77416,-1.68324 1.63484,-1.66765 14.84048,-1.66124 13.36445,0.007 13.13959,-0.0218 14.94405,1.88011 1.6817,1.77252 1.66705,1.64268 1.66705,14.78283 0,13.14014 0.0146,13.01029 -1.66705,14.78282 -1.80609,1.90364 -1.57125,1.8743 -15.0017,1.8743 -11.17047,0 -12.11485,-0.0354 -13.09687,-0.49105 z m 25.9839,-1.28282 c 0.69471,-0.37128 1.36597,-1.02642 1.78593,-1.74304 l 0.67288,-1.14817 v -11.99206 -11.99205 l -0.67288,-1.14817 c -0.41996,-0.71662 -1.09122,-1.37176 -1.78593,-1.74304 -1.10617,-0.59118 -1.18604,-0.59487 -12.88703,-0.59487 -11.70098,0 -11.78085,0.004 -12.88702,0.59487 -0.72634,0.38818 -1.36983,1.03168 -1.85208,1.85208 l -0.73902,1.25722 v 11.77396 c 0,11.66828 0.005,11.78384 0.58932,12.87615 0.66322,1.2404 1.63954,2.03295 2.99222,2.42899 0.56851,0.16645 5.23523,0.2502 12.29346,0.22063 11.2446,-0.0471 11.39004,-0.0546 12.49015,-0.64252 z m -21.73954,-3.43459 c -1.55352,-0.39462 -2.52457,-1.75207 -2.52457,-3.52915 0,-0.92802 0.16264,-1.26524 1.02721,-2.1298 0.86456,-0.86457 1.20178,-1.02721 2.1298,-1.02721 2.20445,0 3.45757,1.28243 3.45757,3.53843 0,1.46953 -0.91548,2.67347 -2.33211,3.06693 -0.53635,0.14896 -1.03471,0.2577 -1.10747,0.24163 -0.0728,-0.0161 -0.36545,-0.0884 -0.65043,-0.16083 z m 16.07996,-0.31787 c -1.43073,-0.65386 -2.04411,-1.78442 -1.85902,-3.42648 0.26566,-2.35701 2.78373,-3.66532 4.92417,-2.55846 1.54797,0.80049 2.21439,2.84097 1.42409,4.36033 -0.94256,1.81212 -2.69292,2.44555 -4.48924,1.62461 z m -8.50014,-7.96257 c -1.84714,-1.12617 -2.06171,-3.5909 -0.45269,-5.19992 0.74572,-0.74572 1.06675,-0.87872 2.12112,-0.87872 2.34058,0 3.79006,1.54712 3.49694,3.7325 -0.32797,2.44514 -3.00708,3.66201 -5.16537,2.34614 z m -8.18095,-8.05841 c -1.12887,-0.49074 -1.92121,-1.83009 -1.92245,-3.24964 -0.002,-2.47403 2.95635,-4.06902 5.0954,-2.74702 2.30417,1.42406 2.00818,4.97525 -0.50211,6.02412 -1.08051,0.45147 -1.58101,0.44632 -2.67084,-0.0275 z m 17.39114,0.22957 c -1.90355,-0.67422 -2.77628,-1.93629 -2.57484,-3.7235 0.47349,-4.20076 6.66386,-3.80122 6.66386,0.4301 0,1.08694 -0.59798,2.17849 -1.52684,2.78711 -0.69748,0.45701 -1.98372,0.71117 -2.56218,0.50629 z" /><path
       id="path2310"
       style="fill:#000000;stroke-width:0.264583"
       d="m 112.13396,142.8435 c -0.58208,-0.27007 -1.43925,-0.89254 -1.90482,-1.38325 -1.68325,-1.77416 -1.66765,-1.63484 -1.66125,-14.84047 0.007,-13.36445 -0.0218,-13.13959 1.88012,-14.94405 1.77415,-1.68324 1.63483,-1.66765 14.84047,-1.66124 11.06674,0.005 12.06277,0.043 13.054,0.49322 1.32117,0.6001 2.83976,2.32746 3.25004,3.69685 0.21262,0.70966 0.30706,4.56548 0.30706,12.53645 0,12.72453 -0.031,12.99859 -1.66489,14.71825 -1.80993,1.90494 -1.57272,1.87529 -15.00386,1.87529 -11.17047,0 -12.11485,-0.0354 -13.09687,-0.49105 z m 25.9839,-1.28282 c 0.69471,-0.37128 1.36597,-1.02642 1.78593,-1.74304 l 0.67288,-1.14817 v -11.97926 c 0,-11.91569 -0.003,-11.98487 -0.59247,-13.03343 -0.35058,-0.62377 -1.07974,-1.34063 -1.78594,-1.75582 l -1.19347,-0.70166 h -11.77396 -11.77395 l -1.1873,0.66479 c -0.78145,0.43754 -1.41454,1.07063 -1.85209,1.85208 l -0.66478,1.1873 -0.0852,10.98021 c -0.0973,12.53068 -0.0235,13.25276 1.51121,14.78744 0.53912,0.53912 1.39132,1.11369 1.89378,1.27682 0.6268,0.20349 4.52634,0.28263 12.42294,0.2521 11.38481,-0.044 11.52142,-0.0509 12.62244,-0.63936 z m -23.00401,-4.97869 c -1.41518,-0.76785 -1.95905,-3.00544 -1.12333,-4.62155 1.08242,-2.09317 4.72946,-2.09317 5.81188,0 0.48562,0.93909 0.50638,2.56373 0.0434,3.39803 -0.82565,1.48787 -3.14128,2.08662 -4.73196,1.22352 z m 16.66875,0 c -2.04327,-1.10865 -2.00944,-4.73191 0.0542,-5.79904 2.38442,-1.23303 5.03574,0.29695 5.03574,2.90594 0,2.61046 -2.74024,4.16802 -5.0899,2.8931 z m -15.98868,-13.63177 c -1.297,-0.37968 -2.20475,-1.63672 -2.20475,-3.05311 0,-2.20085 1.25481,-3.53843 3.31947,-3.53843 4.05797,0 4.51442,5.9523 0.5131,6.69101 -0.43442,0.0802 -1.16694,0.0354 -1.62782,-0.0995 z m 17.08953,0.0111 c -1.75362,-0.46899 -2.62553,-1.56334 -2.62553,-3.29533 0,-1.96424 1.34305,-3.30729 3.30729,-3.30729 1.96424,0 3.30729,1.34305 3.30729,3.30729 0,2.24649 -1.93471,3.84474 -3.98905,3.29533 z" /></g></svg>
