<?xml version="1.0" encoding="UTF-8" standalone="no"?>
<!-- Created with Inkscape (http://www.inkscape.org/) -->

<svg
   width="210mm"
   height="297mm"
   viewBox="0 0 210 297"
   version="1.1"
   id="svg5"
   xml:space="preserve"
   inkscape:version="1.2.1 (9c6d41e410, 2022-07-14)"
   sodipodi:docname="electric.svg"
   xmlns:inkscape="http://www.inkscape.org/namespaces/inkscape"
   xmlns:sodipodi="http://sodipodi.sourceforge.net/DTD/sodipodi-0.dtd"
   xmlns="http://www.w3.org/2000/svg"
   xmlns:svg="http://www.w3.org/2000/svg"><sodipodi:namedview
     id="namedview7"
     pagecolor="#505050"
     bordercolor="#ffffff"
     borderopacity="1"
     inkscape:showpageshadow="0"
     inkscape:pageopacity="0"
     inkscape:pagecheckerboard="1"
     inkscape:deskcolor="#505050"
     inkscape:document-units="mm"
     showgrid="false"
     inkscape:zoom="1.4912879"
     inkscape:cx="263.86589"
     inkscape:cy="274.25959"
     inkscape:window-width="1920"
     inkscape:window-height="1017"
     inkscape:window-x="1912"
     inkscape:window-y="-8"
     inkscape:window-maximized="1"
     inkscape:current-layer="layer1" /><defs
     id="defs2" /><g
     inkscape:label="Layer 1"
     inkscape:groupmode="layer"
     id="layer1"><path
       style="fill:#f9f908;stroke:#000000;stroke-width:1.32291667;stroke-dasharray:none;stroke-opacity:1"
       d="m 69.595916,90.178235 10.741931,-0.202684 -9.206524,21.078519 -3.562187,8.30979 c 1.515119,-1.2333 2.644765,-3.12692 3.850881,-4.66159 2.540771,-3.23292 5.057829,-6.48489 7.58502,-9.72854 6.105269,-7.835941 13.299326,-15.496157 18.560437,-23.916007 -3.643132,0 -8.469707,-0.828345 -11.957999,0.202678 l 3.287234,-6.688373 6.846663,-13.579424 H 87.02622 l -3.519097,0.208312 -1.394627,2.426502 -2.759866,5.877661 -6.779092,14.187457 -2.977622,6.485699 m -1.621424,23.915995 1.621424,-3.85088 c -13.448108,-7.15899 -16.2517,-26.670596 -4.856286,-37.004132 2.367339,-2.146563 5.059713,-4.016875 8.099133,-5.082981 1.581901,-0.554872 4.440269,-0.558378 5.748555,-1.493494 1.006701,-0.719588 1.688915,-2.927055 2.155886,-4.048715 -10.534086,0 -20.451808,6.16668 -24.866843,15.808882 -4.700001,10.264628 -2.586418,22.80107 5.409759,30.80705 1.888593,1.89099 4.137042,3.93013 6.688372,4.86427 M 94.727988,66.667587 c -0.380026,0.913003 -1.586166,2.424434 -1.419969,3.426676 0.155051,0.935359 1.969225,1.842749 2.636036,2.450986 1.952802,1.781538 3.722179,3.748326 5.003715,6.080338 3.4897,6.350509 4.06004,14.020855 1.01399,20.673148 -3.06307,6.689595 -9.035383,11.555685 -16.151608,13.300955 -2.393424,0.58695 -4.856974,0.63417 -7.296406,0.46291 -0.905565,-0.0634 -2.353496,-0.66012 -3.208189,-0.32063 -1.080882,0.42927 -2.235538,2.3539 -2.669472,3.37904 15.397445,4.33711 31.077425,-4.59166 34.834265,-20.267795 2.03123,-8.476196 -0.57013,-18.275676 -6.66506,-24.524034 -1.635418,-1.676553 -3.704963,-4.104148 -6.077302,-4.661594 m -27.36153,52.898953 0.202678,0.20268 z"
       id="path302"
       inkscape:export-filename="electric.png"
       inkscape:export-xdpi="96"
       inkscape:export-ydpi="96" /></g></svg>
