<?xml version="1.0" encoding="UTF-8" standalone="no"?>
<!-- Created with Inkscape (http://www.inkscape.org/) -->

<svg
   width="210mm"
   height="297mm"
   viewBox="0 0 210 297"
   version="1.1"
   id="svg871"
   xml:space="preserve"
   inkscape:version="1.2.1 (9c6d41e410, 2022-07-14)"
   sodipodi:docname="internet.svg"
   xmlns:inkscape="http://www.inkscape.org/namespaces/inkscape"
   xmlns:sodipodi="http://sodipodi.sourceforge.net/DTD/sodipodi-0.dtd"
   xmlns="http://www.w3.org/2000/svg"
   xmlns:svg="http://www.w3.org/2000/svg"><sodipodi:namedview
     id="namedview873"
     pagecolor="#505050"
     bordercolor="#ffffff"
     borderopacity="1"
     inkscape:showpageshadow="0"
     inkscape:pageopacity="0"
     inkscape:pagecheckerboard="1"
     inkscape:deskcolor="#505050"
     inkscape:document-units="mm"
     showgrid="false"
     inkscape:zoom="1.0544998"
     inkscape:cx="324.79855"
     inkscape:cy="418.20777"
     inkscape:window-width="1920"
     inkscape:window-height="1017"
     inkscape:window-x="1912"
     inkscape:window-y="-8"
     inkscape:window-maximized="1"
     inkscape:current-layer="layer1" /><defs
     id="defs868" /><g
     inkscape:label="Layer 1"
     inkscape:groupmode="layer"
     id="layer1"><path
       style="fill:#000000;stroke-width:0.264583"
       d="m 94.659901,151.97233 c -2.919097,-1.12213 -5.156964,-4.35112 -5.181348,-7.47611 -0.0181,-2.31808 0.674569,-4.14091 2.213213,-5.82443 1.754855,-1.92009 3.444865,-2.66122 6.068465,-2.66122 2.623589,0 4.313599,0.74113 6.068449,2.66122 4.92162,5.38503 1.14439,13.90583 -6.137439,13.84502 -0.98616,-0.008 -2.20663,-0.22745 -3.03134,-0.54448 z m -13.92424,-18.08392 c -2.730294,-0.97348 -3.86892,-3.89714 -2.47728,-6.36094 1.400857,-2.48012 7.882104,-6.57974 12.302961,-7.78207 6.486429,-1.76411 12.947928,-1.13996 18.984368,1.83379 3.10634,1.53029 6.8517,4.41746 7.71636,5.94828 1.45324,2.57285 0.0826,5.69717 -2.84513,6.48553 -1.4894,0.40106 -2.8539,-0.0416 -4.39508,-1.42592 -2.01827,-1.8128 -4.49669,-3.28523 -6.81693,-4.04992 -2.99076,-0.98568 -7.534609,-1.04131 -10.471789,-0.12821 -2.568875,0.7986 -4.742795,2.02197 -6.860113,3.86053 -1.471721,1.27796 -2.922648,2.02752 -3.855511,1.99177 -0.145521,-0.006 -0.722357,-0.17335 -1.281856,-0.37284 z M 69.568982,123.05426 c -1.879512,-0.81866 -3.020869,-3.2233 -2.492005,-5.25023 0.567439,-2.17477 6.181501,-6.79075 11.679365,-9.60297 6.132098,-3.13665 11.84859,-4.48609 19.003889,-4.48609 7.155289,0 12.871779,1.34944 19.003879,4.48609 5.49786,2.81222 11.11192,7.4282 11.67936,9.60297 0.93861,3.59729 -2.91859,6.84802 -6.15628,5.18834 -0.46572,-0.23874 -1.61468,-1.14988 -2.55326,-2.02476 -9.34139,-8.70753 -23.933529,-10.88399 -35.900868,-5.35474 -2.672006,1.23454 -6.008111,3.45462 -8.046546,5.35474 -0.938575,0.87488 -2.087539,1.78602 -2.553256,2.02476 -1.012618,0.51908 -2.554848,0.54513 -3.664278,0.0619 z m -9.876266,-10.49839 c -2.674005,-0.56524 -4.240738,-3.70151 -3.075635,-6.15678 1.212244,-2.55462 9.240115,-8.67807 15.478561,-11.80665 19.918268,-9.98902 43.824778,-7.5435 61.118748,6.25215 5.11468,4.08004 6.23931,5.54131 6.02016,7.82212 -0.2608,2.71422 -2.64782,4.41368 -5.40687,3.84946 -0.86269,-0.17642 -1.65629,-0.72519 -3.60159,-2.49049 -6.6362,-6.02217 -14.50118,-10.01453 -23.1871,-11.77006 -3.93036,-0.79437 -11.965539,-0.98797 -16.063305,-0.38703 -5.582386,0.81866 -9.66383,2.10663 -14.779001,4.66377 -4.115301,2.0573 -7.410757,4.30227 -10.562955,7.19582 -1.152961,1.05836 -2.29837,2.06904 -2.545353,2.24597 -0.694534,0.49752 -2.406519,0.79081 -3.39566,0.58172 z"
       id="path1004" /></g></svg>
