<?xml version="1.0" encoding="UTF-8" standalone="no"?>
<!-- Created with Inkscape (http://www.inkscape.org/) -->

<svg
   width="210mm"
   height="297mm"
   viewBox="0 0 210 297"
   version="1.1"
   id="svg871"
   xml:space="preserve"
   inkscape:version="1.2.1 (9c6d41e410, 2022-07-14)"
   sodipodi:docname="park.svg"
   xmlns:inkscape="http://www.inkscape.org/namespaces/inkscape"
   xmlns:sodipodi="http://sodipodi.sourceforge.net/DTD/sodipodi-0.dtd"
   xmlns="http://www.w3.org/2000/svg"
   xmlns:svg="http://www.w3.org/2000/svg"><sodipodi:namedview
     id="namedview873"
     pagecolor="#505050"
     bordercolor="#ffffff"
     borderopacity="1"
     inkscape:showpageshadow="0"
     inkscape:pageopacity="0"
     inkscape:pagecheckerboard="1"
     inkscape:deskcolor="#505050"
     inkscape:document-units="mm"
     showgrid="false"
     inkscape:zoom="1.4912879"
     inkscape:cx="328.23978"
     inkscape:cy="598.81128"
     inkscape:window-width="1920"
     inkscape:window-height="1017"
     inkscape:window-x="1912"
     inkscape:window-y="-8"
     inkscape:window-maximized="1"
     inkscape:current-layer="layer1" /><defs
     id="defs868" /><g
     inkscape:label="Layer 1"
     inkscape:groupmode="layer"
     id="layer1"><path
       style="fill:#000000;stroke-width:0.264583"
       d="m -104.01149,168.43652 c -0.93792,-0.66445 -1.67004,-1.33582 -1.62693,-1.49192 0.0824,-0.29827 28.745639,-41.37488 29.273059,-41.95049 0.24075,-0.26275 0.66451,-0.0781 2.01321,0.87737 0.93954,0.6656 1.6722,1.34026 1.62813,1.49924 -0.0816,0.29423 -29.390539,42.2739 -29.514399,42.2739 -0.0373,0 -0.83515,-0.54364 -1.77307,-1.2081 z m 23.959269,-5.11072 c -3.09828,-1.48747 -4.88761,-4.26383 -4.89221,-7.59081 -0.004,-2.75514 0.5764,-4.17345 2.49016,-6.08721 1.91376,-1.91376 3.33207,-2.49396 6.0872,-2.49015 3.32698,0.005 6.10334,1.79393 7.59082,4.8922 1.08461,2.25916 1.08461,4.8846 0,7.14375 -1.50916,3.14344 -4.25636,4.88787 -7.7041,4.892 -1.64583,0.002 -2.2552,-0.12765 -3.57187,-0.75978 z m 5.17552,-3.89418 c 0.75079,-0.19935 2.13803,-1.87707 2.35781,-2.85155 0.3449,-1.52922 -0.0837,-2.81785 -1.29887,-3.90493 -1.73958,-1.55625 -3.88102,-1.51472 -5.50245,0.10671 -1.62124,1.62124 -1.66268,3.76025 -0.1067,5.50718 1.24573,1.39862 2.44843,1.70062 4.55021,1.14259 z m -90.376889,1.91629 c -1.72038,-0.80113 -2.96528,-2.06565 -3.77516,-3.83467 -0.56279,-1.22929 -0.63355,-1.69681 -0.52933,-3.49721 0.0991,-1.71137 0.25758,-2.30026 0.89793,-3.33599 0.95712,-1.54811 2.70076,-2.91375 4.24894,-3.32783 0.81434,-0.2178 1.20075,-0.47425 1.28058,-0.84986 0.0629,-0.29586 0.714,-7.1459 1.44695,-15.22231 0.76269,-8.40406 1.56499,-15.81596 1.87591,-17.3302 1.89744,-9.24101 6.98652,-18.46132 13.66894,-24.765182 0.99859,-0.942011 3.26749,-2.892909 5.04201,-4.335327 3.20227,-2.602968 3.22269,-2.626635 2.73046,-3.165202 -1.00984,-1.104927 -1.61416,-2.721689 -1.60817,-4.302397 0.007,-1.976927 0.64179,-3.344744 2.22539,-4.798939 1.5383,-1.412591 1.52257,-1.520907 -0.70473,-4.853204 -1.85041,-2.768441 -6.61349,-7.808368 -10.65459,-11.273888 -1.45521,-1.24794 -2.81137,-2.416357 -3.01368,-2.596483 -0.30091,-0.267912 0.8545,-0.938203 6.35,-3.68385 3.69481,-1.845991 6.74937,-3.384536 6.78791,-3.418989 0.0385,-0.03445 -0.40795,-1.21119 -0.99219,-2.614972 -0.58424,-1.403783 -1.06225,-2.612488 -1.06225,-2.686013 0,-0.07352 7.14375,-0.133681 15.87499,-0.133681 8.73125,0 15.87332,0.0893 15.87127,0.198438 -0.002,0.10914 -0.39782,1.281552 -0.87948,2.605359 l -0.87575,2.406921 6.71941,3.35663 c 3.69567,1.846146 6.681049,3.453034 6.634169,3.570863 -0.0469,0.117828 -1.51399,1.404552 -3.260239,2.859387 -3.96334,3.301934 -8.60631,8.088405 -10.25929,10.576378 -1.17848,1.773777 -2.46241,4.287223 -2.26438,4.432794 1.65809,1.218861 2.1602,1.749367 2.72115,2.87505 1.13308,2.273787 0.84698,4.827333 -0.7798,6.960152 l -0.64406,0.844413 4.23361,3.506314 c 4.44666,3.682751 6.73061,5.970275 9.077389,9.091577 4.25338,5.657151 7.34108,12.619431 8.63428,19.468921 0.54614,2.89265 1.88694,15.65161 1.66878,15.88001 -0.0683,0.0716 -0.25648,-0.10704 -0.41809,-0.39687 -0.47764,-0.85656 -2.91013,-3.32701 -3.65534,-3.71237 -0.66724,-0.34504 -0.7029,-0.49113 -1.14002,-4.67081 -0.81321,-7.77577 -1.79041,-11.46254 -4.50984,-17.01462 -3.167539,-6.466944 -6.578389,-10.431931 -14.527349,-16.887489 l -4.45463,-3.617717 h -7.79683 -7.79683 l -4.19919,3.43534 c -5.29391,4.330924 -6.99959,5.911923 -9.10246,8.437083 -5.70346,6.848793 -9.02779,14.778283 -9.94179,23.714033 -0.50693,4.95601 -2.92135,31.03988 -2.92135,31.56039 0,0.46019 -0.23092,0.53186 -2.05363,0.63738 -1.30697,0.0757 -2.30112,0.28105 -2.73435,0.56491 -1.84191,1.20687 -1.84029,3.88425 0.003,5.13713 0.63913,0.43439 2.60522,0.47342 30.07928,0.59707 l 29.39544,0.13229 -1.43824,2.05052 -1.43824,2.05052 -28.35408,-0.003 -28.35408,-0.003 -1.32846,-0.61863 z m 49.91656,-82.639103 c 0.34857,-0.348768 0.5803,-0.909309 0.5803,-1.403762 0,-0.494454 -0.23173,-1.054995 -0.5803,-1.403763 -0.57164,-0.571942 -0.71357,-0.581623 -9.50296,-0.64829 -9.65497,-0.07323 -9.93364,-0.03818 -10.59073,1.33219 -0.28383,0.59195 -0.28383,0.847775 0,1.439725 0.65709,1.370372 0.93576,1.405424 10.59073,1.33219 8.78939,-0.06667 8.93132,-0.07635 9.50296,-0.64829 z m -2.56827,-9.341262 c 1.39627,-3.414371 4.23259,-7.257395 8.56431,-11.604054 1.79214,-1.798323 3.22167,-3.302852 3.17673,-3.343397 -0.0449,-0.04055 -1.66247,-0.863589 -3.59451,-1.828987 l -3.5128,-1.755268 -0.48273,1.129916 c -0.2655,0.621454 -1.04739,2.469369 -1.73753,4.106478 -0.69013,1.63711 -1.36862,2.976563 -1.50775,2.976563 -0.58274,0 -3.66055,-1.480275 -3.66325,-1.761845 -0.002,-0.16865 1.06863,-2.809102 2.37832,-5.867671 1.30969,-3.058569 2.38125,-5.629255 2.38125,-5.712635 0,-0.08338 -4.16719,-0.151599 -9.26042,-0.151599 -5.09323,0 -9.26041,0.06822 -9.26041,0.151599 0,0.08338 1.07156,2.654066 2.38125,5.712635 1.30968,3.058569 2.37993,5.699021 2.37831,5.867671 -0.003,0.28157 -3.0805,1.761845 -3.66324,1.761845 -0.13913,0 -0.81762,-1.339453 -1.50775,-2.976563 -0.69014,-1.637109 -1.47203,-3.485024 -1.73753,-4.106478 l -0.48273,-1.129916 -3.5128,1.755268 c -1.93204,0.965398 -3.55006,1.78893 -3.5956,1.830072 -0.0455,0.04114 1.32404,1.48614 3.04349,3.211106 4.34077,4.354682 6.97523,7.99271 8.54909,11.805772 l 0.62975,1.525717 6.72073,-0.07051 6.72073,-0.07051 z m 14.56975,74.908255 c -3.09828,-1.48747 -4.88761,-4.26383 -4.89221,-7.59081 -0.004,-2.75514 0.5764,-4.17345 2.49016,-6.0872 1.91376,-1.91376 3.33207,-2.49397 6.087199,-2.49016 3.32698,0.005 6.10334,1.79393 7.59082,4.8922 1.08461,2.25916 1.08461,4.8846 0,7.14375 -1.50916,3.14344 -4.25636,4.88787 -7.7041,4.892 -1.645829,0.002 -2.255209,-0.12765 -3.571869,-0.75978 z m 5.175509,-3.89418 c 0.7508,-0.19935 2.13804,-1.87707 2.35782,-2.85154 0.3449,-1.52923 -0.0837,-2.81786 -1.29887,-3.90494 -1.73958,-1.55624 -3.881019,-1.51472 -5.502449,0.10671 -1.62124,1.62124 -1.66268,3.76025 -0.1067,5.50718 1.24573,1.39862 2.44843,1.70062 4.550199,1.14259 z m -29.120299,0.46017 v -2.07992 l -1.54216,-0.13984 c -4.43954,-0.40256 -8.57274,-4.54049 -8.97585,-8.98614 l -0.14087,-1.55347 2.21396,0.0775 2.21395,0.0774 0.1987,1.16799 c 0.40017,2.35226 2.35759,4.2949 4.78444,4.74829 l 1.24783,0.23311 v -6.27909 -6.27909 l -1.54216,-0.13984 c -3.23216,-0.29308 -6.5782,-2.71547 -8.13138,-5.88678 -0.72318,-1.47658 -0.7775,-1.8001 -0.7775,-4.63021 0,-2.83011 0.0543,-3.15363 0.7775,-4.63021 1.55318,-3.17131 4.89922,-5.5937 8.13138,-5.88678 l 1.54216,-0.13984 v -2.079918 -2.079918 h 2.11666 2.11667 v 2.079918 2.079918 l 1.54216,0.13984 c 4.43954,0.40256 8.57274,4.54049 8.97586,8.98614 l 0.14086,1.55347 -2.21396,-0.0775 -2.21395,-0.0775 -0.1987,-1.16798 c -0.40017,-2.35227 -2.3576,-4.29491 -4.78444,-4.74829 l -1.24783,-0.23312 v 6.27909 6.27909 l 1.54216,0.13984 c 3.23216,0.29309 6.5782,2.71548 8.13138,5.88679 0.72318,1.47657 0.7775,1.80009 0.7775,4.6302 0,2.83011 -0.0543,3.15363 -0.7775,4.63021 -1.55318,3.17131 -4.89922,5.5937 -8.13138,5.88678 l -1.54216,0.13984 v 2.07992 2.07992 h -2.11667 -2.11666 z m 7.72786,-7.58233 c 4.49122,-2.97215 3.03859,-10.21558 -2.2467,-11.20298 l -1.24783,-0.23312 v 6.28168 6.28168 l 1.24783,-0.23311 c 0.6863,-0.12822 1.69732,-0.53058 2.2467,-0.89415 z m -7.72786,-22.05359 v -6.31584 l -1.24783,0.23312 c -6.48035,1.21066 -6.52206,10.84166 -0.0524,12.11136 0.64239,0.12607 1.19775,0.24227 1.23413,0.25821 0.0364,0.016 0.0662,-2.81314 0.0662,-6.28685 z"
       id="path1164"
       inkscape:export-filename="..\..\..\public\tax.png"
       inkscape:export-xdpi="37.486824"
       inkscape:export-ydpi="37.486824" /><path
       style="fill:#002100;stroke:none;stroke-width:0.264583;fill-opacity:1"
       d="m 69.634943,162.85148 v 8.73125 c -2.99826,0 -5.99757,-0.0204 -8.99583,2.6e-4 -1.06754,0.007 -2.76148,0.27041 -2.17321,1.81293 0.42296,1.10887 2.03444,0.83264 2.96696,0.83264 h 8.46667 30.162497 7.40833 c 0.80327,0 2.09417,0.22199 2.71303,-0.42413 2.29077,-2.39262 -3.38348,-2.2217 -4.30053,-2.2217 h -7.408327 c -0.82048,0 -2.109,0.21748 -2.75088,-0.42413 -0.89667,-0.89694 -0.42412,-3.43456 -0.42412,-4.60296 0,-0.87127 -0.19712,-2.05396 0.15954,-2.87125 0.69241,-1.58565 5.267057,-0.83291 6.719617,-0.83291 5.1779,0 10.44257,-0.65538 11.96948,-6.61459 0.93557,-3.65072 -0.43418,-7.65519 -3.50282,-9.84541 -1.03108,-0.7358 -2.67678,-0.86862 -3.54832,-1.72429 -1.43034,-1.40388 -1.58168,-4.66725 -2.94164,-6.42196 -4.233057,-5.46233 -12.344657,-6.30185 -17.851697,-2.38125 -0.83555,-3.61157 -2.41697,-7.07126 -4.17248,-10.31875 -1.81213,-3.35246 -4.21587,-6.65565 -7.2046,-9.04666 -1.01124,-0.80912 -2.33812,-1.96485 -3.70417,-2.00295 -1.49198,-0.0416 -2.87787,1.18607 -3.96875,2.05478 -3.27316,2.60675 -5.85115,6.34267 -7.73742,10.05316 -5.41269,10.64736 -9.337198,28.27973 4.29784,34.68952 1.82298,0.85699 3.8137,1.39859 5.82083,1.5584 m 35.718747,-48.27871 c -8.902957,2.05465 -5.11572,15.96964 3.70417,13.81964 9.10325,-2.21906 5.38559,-15.91733 -3.70417,-13.81964 m 1.85209,2.63115 c 5.46787,-0.19584 5.71155,8.22224 0.26458,8.54927 -5.53985,0.33285 -5.83644,-8.34969 -0.26458,-8.54927 m -34.660417,42.73714 c 0,-4.49686 0.43471,-5.99096 3.70417,-9.26042 0.92101,-0.92101 4.16639,-3.23241 3.63643,-4.74689 -0.38153,-1.08981 -1.5494,-0.96969 -2.31352,-0.42889 -1.86213,1.31789 -3.1541,3.3274 -5.02708,4.64662 0,-2.02698 -0.54451,-4.96914 0.15954,-6.87917 0.60193,-1.63221 2.50905,-2.40347 3.22766,-3.96848 1.33588,-2.90989 -2.48338,-1.14406 -3.3872,-0.52944 0,-1.67084 0.96467,-8.68098 -1.32398,-8.94926 -1.00965,-0.11827 -1.46685,0.99642 -1.5576,1.80578 -0.26141,2.32648 -0.0288,4.80219 -0.0288,7.14348 -0.78052,-0.5498 -1.43325,-1.18348 -2.11666,-1.85102 -0.77338,-0.75565 -4.2454,-2.36564 -3.15225,0.26379 0.9435,2.26854 3.89731,3.35677 4.99692,5.55598 0.93663,1.87299 0.27199,5.33744 0.27199,7.40834 -0.98081,-0.69109 -1.79731,-1.53326 -2.64583,-2.38125 -0.85143,-0.85117 -1.94019,-2.39104 -3.17394,-2.67494 -0.96428,-0.22172 -1.69439,0.7194 -1.40727,1.61687 0.95695,2.99032 5.14901,4.78816 6.80292,7.40807 0.92948,1.47267 0.42412,4.13543 0.42412,5.82083 -1.63195,-0.13335 -3.29432,-0.58102 -4.7625,-1.31524 -11.59332,-5.79649 -7.69554,-21.92497 -2.68258,-30.96393 1.62213,-2.92523 3.45622,-5.58823 5.85758,-7.93363 0.76915,-0.75116 1.97565,-2.17726 3.175,-2.08542 1.0877,0.0833 2.13598,1.28013 2.88661,1.9703 2.51274,2.31015 4.51591,5.2791 6.04361,8.31334 4.55771,9.05113 9.08606,25.05895 -2.8448,30.72077 -1.5113,0.71702 -3.09695,1.16125 -4.7625,1.29381 m 22.75417,0 c 0,-1.27979 -0.24157,-2.8321 0.4609,-3.96875 1.23455,-1.99734 4.271697,-3.33137 5.048777,-5.55519 0.95012,-2.71833 -2.745047,-0.63606 -3.393017,-2.7e-4 -0.68183,0.66914 -1.33641,1.30175 -2.11666,1.85129 0,-1.39514 0.81888,-7.24005 -1.32292,-7.24005 -2.1418,0 -1.32292,5.84491 -1.32292,7.24005 -0.63711,-0.44291 -4.56671,-2.88422 -3.63643,0.001 0.47942,1.48696 2.36352,2.38919 3.17553,3.70311 0.70247,1.13665 0.4609,2.68896 0.4609,3.96875 h -11.64166 c 2.29579,-4.00897 5.82533,-6.0923 6.53917,-11.1125 0.32729,-2.30214 0.27676,-4.57279 -0.037,-6.87917 -0.17674,-1.29751 -0.71464,-2.74108 0.41646,-3.72348 4.20846,-3.65469 11.48053,-2.05263 14.367667,2.40057 1.19565,1.84388 0.92921,4.7035 2.15662,6.28967 1.03954,1.34303 3.69437,1.13057 5.10751,2.31696 3.62929,3.04747 2.10052,9.25803 -2.35664,10.53915 -3.48377,1.00118 -8.283577,0.1688 -11.906247,0.1688 m -22.75417,11.64167 v -8.73125 c 1.6518,-0.21326 3.39381,-1.07765 5.02708,-1.11337 1.14512,-0.0251 2.30267,0.78555 3.43959,0.99034 1.54225,0.27834 3.20066,0.12303 4.7625,0.12303 1.6883,0 4.73895,-0.59161 6.26586,0.15954 1.0795,0.53128 1.1266,7.55729 0.18918,8.29972 -1.05278,0.83396 -4.10104,0.27199 -5.39671,0.27199 z"
       id="path1185"
       inkscape:export-filename="..\..\..\public\park.png"
       inkscape:export-xdpi="63.588387"
       inkscape:export-ydpi="63.588387" /></g></svg>
