<?xml version="1.0" encoding="UTF-8" standalone="no"?>
<!-- Created with Inkscape (http://www.inkscape.org/) -->

<svg
   width="210mm"
   height="297mm"
   viewBox="0 0 210 297"
   version="1.1"
   id="svg871"
   xml:space="preserve"
   inkscape:version="1.2.1 (9c6d41e410, 2022-07-14)"
   sodipodi:docname="tax.svg"
   xmlns:inkscape="http://www.inkscape.org/namespaces/inkscape"
   xmlns:sodipodi="http://sodipodi.sourceforge.net/DTD/sodipodi-0.dtd"
   xmlns="http://www.w3.org/2000/svg"
   xmlns:svg="http://www.w3.org/2000/svg"><sodipodi:namedview
     id="namedview873"
     pagecolor="#505050"
     bordercolor="#ffffff"
     borderopacity="1"
     inkscape:showpageshadow="0"
     inkscape:pageopacity="0"
     inkscape:pagecheckerboard="1"
     inkscape:deskcolor="#505050"
     inkscape:document-units="mm"
     showgrid="false"
     inkscape:zoom="1.4912879"
     inkscape:cx="369.14402"
     inkscape:cy="366.79705"
     inkscape:window-width="1920"
     inkscape:window-height="1017"
     inkscape:window-x="1912"
     inkscape:window-y="-8"
     inkscape:window-maximized="1"
     inkscape:current-layer="layer1" /><defs
     id="defs868" /><g
     inkscape:label="Layer 1"
     inkscape:groupmode="layer"
     id="layer1"><path
       style="fill:#000000;stroke-width:0.264583"
       d="m 118.47238,160.63007 c -0.93792,-0.66445 -1.67004,-1.33582 -1.62693,-1.49192 0.0824,-0.29827 28.74564,-41.37488 29.27306,-41.95049 0.24075,-0.26275 0.66451,-0.0781 2.01321,0.87737 0.93954,0.6656 1.6722,1.34026 1.62813,1.49924 -0.0816,0.29423 -29.39054,42.2739 -29.5144,42.2739 -0.0373,0 -0.83515,-0.54364 -1.77307,-1.2081 z m 23.95927,-5.11072 c -3.09828,-1.48747 -4.88761,-4.26383 -4.89221,-7.59081 -0.004,-2.75514 0.5764,-4.17345 2.49016,-6.08721 1.91376,-1.91376 3.33207,-2.49396 6.0872,-2.49015 3.32698,0.005 6.10334,1.79393 7.59082,4.8922 1.08461,2.25916 1.08461,4.8846 0,7.14375 -1.50916,3.14344 -4.25636,4.88787 -7.7041,4.892 -1.64583,0.002 -2.2552,-0.12765 -3.57187,-0.75978 z m 5.17552,-3.89418 c 0.75079,-0.19935 2.13803,-1.87707 2.35781,-2.85155 0.3449,-1.52922 -0.0837,-2.81785 -1.29887,-3.90493 -1.73958,-1.55625 -3.88102,-1.51472 -5.50245,0.10671 -1.62124,1.62124 -1.66268,3.76025 -0.1067,5.50718 1.24573,1.39862 2.44843,1.70062 4.55021,1.14259 z m -90.376888,1.91629 c -1.72038,-0.80113 -2.96528,-2.06565 -3.77516,-3.83467 -0.56279,-1.22929 -0.63355,-1.69681 -0.52933,-3.49721 0.0991,-1.71137 0.25758,-2.30026 0.89793,-3.33599 0.95712,-1.54811 2.70076,-2.91375 4.24894,-3.32783 0.81434,-0.2178 1.20075,-0.47425 1.28058,-0.84986 0.0629,-0.29586 0.714,-7.1459 1.44695,-15.22231 0.76269,-8.40406 1.56499,-15.81596 1.87591,-17.3302 1.89744,-9.241014 6.98652,-18.461322 13.66894,-24.765184 0.99859,-0.942011 3.26749,-2.892909 5.04201,-4.335327 3.20227,-2.602968 3.22269,-2.626635 2.73046,-3.165202 -1.00984,-1.104927 -1.61416,-2.721689 -1.60817,-4.302397 0.007,-1.976927 0.64179,-3.344744 2.22539,-4.798939 1.5383,-1.412591 1.52257,-1.520907 -0.70473,-4.853204 -1.85041,-2.768441 -6.61349,-7.808368 -10.65459,-11.273888 -1.45521,-1.24794 -2.81137,-2.416357 -3.01368,-2.596483 -0.30091,-0.267912 0.8545,-0.938203 6.35,-3.68385 3.69481,-1.845991 6.74937,-3.384536 6.78791,-3.418989 0.0385,-0.03445 -0.40795,-1.21119 -0.99219,-2.614972 -0.58424,-1.403783 -1.06225,-2.612488 -1.06225,-2.686013 0,-0.07352 7.14375,-0.133681 15.87499,-0.133681 8.731248,0 15.873318,0.0893 15.871268,0.198438 -0.002,0.10914 -0.39782,1.281552 -0.87948,2.605359 l -0.87575,2.406921 6.71941,3.35663 c 3.69567,1.846146 6.68105,3.453034 6.63417,3.570863 -0.0469,0.117828 -1.51399,1.404552 -3.26024,2.859387 -3.96334,3.301934 -8.60631,8.088405 -10.25929,10.576378 -1.17848,1.773777 -2.46241,4.287223 -2.26438,4.432794 1.65809,1.218861 2.1602,1.749367 2.72115,2.87505 1.13308,2.273787 0.84698,4.827333 -0.7798,6.960152 l -0.64406,0.844413 4.23361,3.506314 c 4.44666,3.682751 6.73061,5.970275 9.07739,9.091577 4.25338,5.657151 7.34108,12.619431 8.63428,19.468923 0.54614,2.89265 1.88694,15.65161 1.66878,15.88001 -0.0683,0.0716 -0.25648,-0.10704 -0.41809,-0.39687 -0.47764,-0.85656 -2.91013,-3.32701 -3.65534,-3.71237 -0.66724,-0.34504 -0.7029,-0.49113 -1.14002,-4.67081 -0.81321,-7.77577 -1.79041,-11.46254 -4.50984,-17.01462 -3.16754,-6.466946 -6.57839,-10.431933 -14.52735,-16.887491 l -4.45463,-3.617717 h -7.796828 -7.79683 l -4.19919,3.43534 c -5.29391,4.330924 -6.99959,5.911923 -9.10246,8.437083 -5.70346,6.848795 -9.02779,14.778285 -9.94179,23.714035 -0.50693,4.95601 -2.92135,31.03988 -2.92135,31.56039 0,0.46019 -0.23092,0.53186 -2.05363,0.63738 -1.30697,0.0757 -2.30112,0.28105 -2.73435,0.56491 -1.84191,1.20687 -1.84029,3.88425 0.003,5.13713 0.63913,0.43439 2.60522,0.47342 30.07928,0.59707 l 29.395438,0.13229 -1.43824,2.05052 -1.43824,2.05052 -28.354078,-0.003 -28.35408,-0.003 -1.32846,-0.61863 z M 107.14684,70.902355 c 0.34857,-0.348768 0.5803,-0.909309 0.5803,-1.403762 0,-0.494454 -0.23173,-1.054995 -0.5803,-1.403763 -0.57164,-0.571942 -0.71357,-0.581623 -9.502958,-0.64829 -9.65497,-0.07323 -9.93364,-0.03818 -10.59073,1.33219 -0.28383,0.59195 -0.28383,0.847775 0,1.439725 0.65709,1.370372 0.93576,1.405424 10.59073,1.33219 8.789388,-0.06667 8.931318,-0.07635 9.502958,-0.64829 z m -2.56827,-9.341262 c 1.39627,-3.414371 4.23259,-7.257395 8.56431,-11.604054 1.79214,-1.798323 3.22167,-3.302852 3.17673,-3.343397 -0.0449,-0.04055 -1.66247,-0.863589 -3.59451,-1.828987 l -3.5128,-1.755268 -0.48273,1.129916 c -0.2655,0.621454 -1.04739,2.469369 -1.73753,4.106478 -0.69013,1.63711 -1.36862,2.976563 -1.50775,2.976563 -0.58274,0 -3.66055,-1.480275 -3.66325,-1.761845 -0.002,-0.16865 1.06863,-2.809102 2.37832,-5.867671 1.30969,-3.058569 2.38125,-5.629255 2.38125,-5.712635 0,-0.08338 -4.16719,-0.151599 -9.260418,-0.151599 -5.09323,0 -9.26041,0.06822 -9.26041,0.151599 0,0.08338 1.07156,2.654066 2.38125,5.712635 1.30968,3.058569 2.37993,5.699021 2.37831,5.867671 -0.003,0.28157 -3.0805,1.761845 -3.66324,1.761845 -0.13913,0 -0.81762,-1.339453 -1.50775,-2.976563 -0.69014,-1.637109 -1.47203,-3.485024 -1.73753,-4.106478 l -0.48273,-1.129916 -3.5128,1.755268 c -1.93204,0.965398 -3.55006,1.78893 -3.5956,1.830072 -0.0455,0.04114 1.32404,1.48614 3.04349,3.211106 4.34077,4.354682 6.97523,7.99271 8.54909,11.805772 l 0.62975,1.525717 6.72073,-0.07051 6.720728,-0.07051 z m 14.56975,74.908257 c -3.09828,-1.48747 -4.88761,-4.26383 -4.89221,-7.59081 -0.004,-2.75514 0.5764,-4.17345 2.49016,-6.0872 1.91376,-1.91376 3.33207,-2.49397 6.0872,-2.49016 3.32698,0.005 6.10334,1.79393 7.59082,4.8922 1.08461,2.25916 1.08461,4.8846 0,7.14375 -1.50916,3.14344 -4.25636,4.88787 -7.7041,4.892 -1.64583,0.002 -2.25521,-0.12765 -3.57187,-0.75978 z m 5.17551,-3.89418 c 0.7508,-0.19935 2.13804,-1.87707 2.35782,-2.85154 0.3449,-1.52923 -0.0837,-2.81786 -1.29887,-3.90494 -1.73958,-1.55624 -3.88102,-1.51472 -5.50245,0.10671 -1.62124,1.62124 -1.66268,3.76025 -0.1067,5.50718 1.24573,1.39862 2.44843,1.70062 4.5502,1.14259 z m -29.120298,0.46017 v -2.07992 l -1.54216,-0.13984 c -4.43954,-0.40256 -8.57274,-4.54049 -8.97585,-8.98614 l -0.14087,-1.55347 2.21396,0.0775 2.21395,0.0774 0.1987,1.16799 c 0.40017,2.35226 2.35759,4.2949 4.78444,4.74829 l 1.24783,0.23311 v -6.27909 -6.27909 l -1.54216,-0.13984 c -3.23216,-0.29308 -6.5782,-2.71547 -8.13138,-5.88678 -0.72318,-1.47658 -0.7775,-1.8001 -0.7775,-4.63021 0,-2.83011 0.0543,-3.15363 0.7775,-4.63021 1.55318,-3.171309 4.89922,-5.593699 8.13138,-5.886784 l 1.54216,-0.139837 V 90.6285 88.548582 h 2.11666 2.11667 v 2.079918 2.079919 l 1.542158,0.139837 c 4.43954,0.402567 8.57274,4.540496 8.97586,8.986144 l 0.14086,1.55347 -2.21396,-0.0775 -2.21395,-0.0775 -0.1987,-1.16798 c -0.40017,-2.35227 -2.3576,-4.294909 -4.78444,-4.748294 l -1.247828,-0.233119 v 6.279093 6.27909 l 1.542158,0.13984 c 3.23216,0.29309 6.5782,2.71548 8.13138,5.88679 0.72318,1.47657 0.7775,1.80009 0.7775,4.6302 0,2.83011 -0.0543,3.15363 -0.7775,4.63021 -1.55318,3.17131 -4.89922,5.5937 -8.13138,5.88678 l -1.542158,0.13984 v 2.07992 2.07992 h -2.11667 -2.11666 z m 7.727858,-7.58233 c 4.49122,-2.97215 3.03859,-10.21558 -2.2467,-11.20298 l -1.247828,-0.23312 v 6.28168 6.28168 l 1.247828,-0.23311 c 0.6863,-0.12822 1.69732,-0.53058 2.2467,-0.89415 z m -7.727858,-22.05359 v -6.315844 l -1.24783,0.233119 c -6.48035,1.210662 -6.52206,10.841665 -0.0524,12.111365 0.64239,0.12607 1.19775,0.24227 1.23413,0.25821 0.0364,0.016 0.0662,-2.81314 0.0662,-6.28685 z"
       id="path1164" /></g></svg>
